<?xml version="1.0" encoding="utf-8"?>
<!-- Generator: Adobe Illustrator 15.0.0, SVG Export Plug-In . SVG Version: 6.00 Build 0)  -->
<!DOCTYPE svg PUBLIC "-//W3C//DTD SVG 1.1//EN" "http://www.w3.org/Graphics/SVG/1.1/DTD/svg11.dtd">
<svg version="1.1" id="ICONS" xmlns="http://www.w3.org/2000/svg" xmlns:xlink="http://www.w3.org/1999/xlink" x="0px" y="0px"
	 width="80px" height="80px" viewBox="0 0 80 80" enable-background="new 0 0 80 80" xml:space="preserve">
<rect x="-192.944" y="-23.25" display="none" opacity="0.5" width="464.882" height="125.577"/>
<g id="ICONS_TEMPLATE" display="none">
	<circle fill="#FFFFFF" cx="40" cy="40" r="32"/>
	<g>
		<path display="inline" d="M25.778,32.135v5.294h8.539v5.086h-8.539v5.351h8.539v5.086H19.478V27.049h14.839v5.086H25.778z"/>
		<path display="inline" d="M44.772,38.207v14.744h-6.3V27.049h6.3l9.45,14.555V27.049h6.3v25.902h-6.3L44.772,38.207z"/>
	</g>
	<g id="ZHONG_1_">
		<rect x="23.899" y="30.551" display="inline" width="32.202" height="6.3"/>
		<rect x="36.85" y="22.64" display="inline" width="6.3" height="34.721"/>
		<rect x="49.802" y="30.551" display="inline" width="6.3" height="18.899"/>
		<rect x="23.899" y="43.15" display="inline" width="32.202" height="6.3"/>
		<rect x="23.898" y="30.551" display="inline" width="6.3" height="18.899"/>
	</g>
</g>
<path id="EN" fill="#FFFFFF" d="M40,1.2C18.572,1.2,1.2,18.571,1.2,40S18.572,78.8,40,78.8S78.8,61.429,78.8,40S61.428,1.2,40,1.2z
	 M33.109,30.463H22.756v6.419h10.354v6.167H22.756v6.488h10.354v6.166H15.117V24.297h17.993V30.463z M64.883,55.703h-7.638
	L45.787,37.826v17.877h-7.638V24.297h7.638l11.458,17.647V24.297h7.638V55.703z"/>
<g id="ZHONG" display="none">
	<rect x="43.819" y="36.181" display="inline" fill="#FFFFFF" width="8.066" height="7.64"/>
	<rect x="28.116" y="36.181" display="inline" fill="#FFFFFF" width="8.064" height="7.64"/>
	<path display="inline" fill="#FFFFFF" d="M40,1.2C18.572,1.2,1.2,18.571,1.2,40S18.572,78.8,40,78.8S78.8,61.429,78.8,40
		S61.428,1.2,40,1.2z M59.523,36.181v7.64v7.638h-7.638h-8.066v9.592H36.18v-9.592h-8.064h-7.638h-0.001V28.543h0.001h7.638h8.064
		V18.95h7.639v9.593h8.066h7.638V36.181z"/>
</g>
<g id="HAMBURGER" display="none">
	<rect x="8.622" y="8.569" display="inline" fill="#FFFFFF" width="62.756" height="12.551"/>
	<rect x="8.622" y="33.672" display="inline" fill="#FFFFFF" width="62.756" height="12.551"/>
	<rect x="8.622" y="58.774" display="inline" fill="#FFFFFF" width="62.756" height="12.551"/>
</g>
<g id="STORYZER_logo" display="none">
	<path display="inline" fill="#FFFFFF" d="M226.121,47.648c5.051-0.183,8.607-1.266,11.955-3.626c2.41-1.7,4.311-3.978,5.654-6.77
		c1.337-2.785,2.015-5.863,2.015-9.146c0-6.338-2.082-11.29-6.191-14.718c-4.027-3.377-8.777-4.819-15.88-4.819h-17.001v62.756
		h8.734V47.688h0.009l19.58,23.478l0.144,0.16h10.724L226.121,47.648z M215.407,16.218h6.591c5.563,0,9.681,1.104,12.235,3.281
		c2.505,2.16,3.774,5.07,3.774,8.649c0,2.46-0.627,4.659-1.869,6.536c-1.353,2.073-3.222,3.533-5.557,4.343
		c-1.995,0.701-4.548,1.057-7.587,1.057h-7.586V16.218z"/>
	<polygon display="inline" fill="#FFFFFF" points="199.067,16.17 199.067,8.569 161.309,8.569 161.309,71.325 199.067,71.325 
		199.067,63.72 170.044,63.72 170.044,43.749 199.067,43.749 199.067,36.146 170.044,36.146 170.044,16.17 	"/>
	<polygon display="inline" fill="#FFFFFF" points="153.704,8.569 112.208,8.569 112.208,16.17 139.355,16.17 112.208,71.325 
		153.704,71.325 153.704,63.724 126.557,63.724 	"/>
	<polygon display="inline" fill="#FFFFFF" points="95.542,8.569 80.096,34.608 64.565,8.799 64.427,8.569 54.029,8.569 
		75.776,43.773 75.776,71.325 84.511,71.325 84.511,43.77 105.89,8.569 	"/>
	<path display="inline" fill="#FFFFFF" d="M33.212,47.648c5.051-0.183,8.607-1.266,11.955-3.626c2.411-1.7,4.312-3.978,5.654-6.77
		c1.337-2.785,2.016-5.863,2.016-9.146c0-6.338-2.083-11.29-6.191-14.718c-4.027-3.377-8.777-4.819-15.88-4.819h-17v62.756h8.734
		V47.688h0.009l19.58,23.478l0.144,0.16h10.724L33.212,47.648z M22.499,16.218h6.591c5.563,0,9.681,1.104,12.235,3.281
		c2.503,2.16,3.774,5.07,3.774,8.649c0,2.46-0.628,4.659-1.868,6.536c-1.353,2.073-3.222,3.533-5.558,4.343
		c-1.995,0.701-4.549,1.057-7.587,1.057h-7.587V16.218z"/>
	<path display="inline" fill="#FFFFFF" d="M3.009,31.124c-3.2-9.406-4.927-12.237-6.553-14.633
		C-9.478,7.741-22.395,1.395-40.769,1.712c-11.236,0.194-21.115,9.636-24.005,13.909c-2.349,3.473-6.174,9.159-7.325,13.819
		c-1.052,4.252-2.791,15.899,0.713,22.73c2.034,3.965,3.608,6.097,4.97,7.762c-1.139,8.375-7.141,9.904-6.155,11.092
		c1.371,1.651,12.575,1.097,16.985-0.487c0.507,0.42,0.975,0.788,1.382,1.08c4.691,3.365,12.699,6.789,19.019,6.681
		c10.379-0.18,18.965-4.347,22.894-6.759c2.816-1.731,5.66-3.964,9.644-8.831c3.676-4.486,6.618-10.532,7.325-16.054
		C5.215,42.444,4.507,35.526,3.009,31.124z"/>
	<polygon display="inline" fill="#FFFFFF" points="-122.252,8.569 -122.252,16.17 -104.025,16.17 -104.025,71.325 -95.291,71.325 
		-95.291,16.17 -77.019,16.17 -77.019,8.569 	"/>
	<path display="inline" fill="#FFFFFF" d="M-136.443,39.099c-1.688-1.001-9.342-3.803-9.355-3.805
		c-3.934-1.446-6.594-2.654-7.909-3.591c-2.242-1.579-3.332-3.808-3.332-6.813c0-2.638,0.885-4.888,2.634-6.696
		c1.801-1.912,4.289-2.882,7.443-2.882c3.11,0,5.599,0.97,7.404,2.888c1.744,1.803,2.629,4.053,2.629,6.69
		c0,0.371-0.018,0.734-0.053,1.086l-0.05,0.519h8.882l0.027-0.698c0.009-0.118,0.018-0.237,0.018-0.363
		c0-5.612-1.974-10.18-5.867-13.58c-3.356-2.925-7.734-4.411-13.012-4.417c-5.277,0.006-9.654,1.492-13.011,4.417
		c-3.894,3.4-5.867,7.968-5.867,13.58c0,6.428,2.804,11.35,8.337,14.627c1.653,0.978,4.79,2.257,9.303,3.788
		c1.845,0.741,6.874,2.831,7.962,3.605c2.242,1.58,3.332,3.809,3.332,6.813c0,2.638-0.885,4.888-2.634,6.693
		c-1.801,1.914-4.29,2.885-7.443,2.885c-3.11,0-5.599-0.971-7.404-2.889c-1.744-1.802-2.629-4.052-2.629-6.689
		c0-0.371,0.018-0.735,0.053-1.087l0.05-0.521h-8.883l-0.027,0.698c-0.009,0.119-0.018,0.24-0.018,0.365
		c0,5.611,1.973,10.18,5.868,13.578c3.356,2.928,7.734,4.413,13.011,4.417h0.001c5.277-0.004,9.654-1.489,13.011-4.417
		c3.893-3.398,5.867-7.967,5.867-13.578C-128.106,47.298-130.91,42.375-136.443,39.099z"/>
</g>
</svg>
