<?xml version="1.0" encoding="utf-8"?>
<!-- Generator: Adobe Illustrator 15.0.0, SVG Export Plug-In . SVG Version: 6.00 Build 0)  -->
<!DOCTYPE svg PUBLIC "-//W3C//DTD SVG 1.1//EN" "http://www.w3.org/Graphics/SVG/1.1/DTD/svg11.dtd">
<svg version="1.1" id="HAMBURGER" xmlns="http://www.w3.org/2000/svg" xmlns:xlink="http://www.w3.org/1999/xlink" x="0px" y="0px"
	 width="40px" height="40px" viewBox="0 0 40 40" enable-background="new 0 0 40 40" xml:space="preserve">
<rect x="5.7" y="5.7" display="none" width="28.6" height="5.7"/>
<rect x="5.7" y="17.1" display="none" width="28.6" height="5.7"/>
<rect x="5.7" y="28.6" display="none" width="28.6" height="5.7"/>
<rect x="5.7" y="34.3" display="none" fill="#EE3E73" width="28.6" height="5.7"/>
<rect x="5.7" display="none" fill="#EE3E73" width="28.6" height="5.7"/>
<rect x="34.3" y="5.7" display="none" fill="#EE3E73" width="5.7" height="28.6"/>
<rect y="5.7" display="none" fill="#EE3E73" width="5.7" height="28.6"/>
<path fill="#FFFFFF" d="M34.3,8.6c0,1.6-1.3,2.9-2.9,2.9H8.6c-1.6,0-2.9-1.3-2.9-2.9l0,0C5.7,7,7,5.7,8.6,5.7h22.9
	C33,5.7,34.3,7,34.3,8.6L34.3,8.6z"/>
<path fill="#FFFFFF" d="M34.3,20c0,1.6-1.3,2.9-2.9,2.9H8.6c-1.6,0-2.9-1.3-2.9-2.9l0,0c0-1.6,1.3-2.9,2.9-2.9h22.9
	C33,17.1,34.3,18.4,34.3,20L34.3,20z"/>
<path fill="#FFFFFF" d="M34.3,31.4c0,1.6-1.3,2.9-2.9,2.9H8.6c-1.6,0-2.9-1.3-2.9-2.9l0,0c0-1.6,1.3-2.9,2.9-2.9h22.9
	C33,28.6,34.3,29.9,34.3,31.4L34.3,31.4z"/>
</svg>
