<?xml version="1.0" encoding="utf-8"?>
<!-- Generator: Adobe Illustrator 18.1.1, SVG Export Plug-In . SVG Version: 6.00 Build 0)  -->
<!DOCTYPE svg PUBLIC "-//W3C//DTD SVG 1.1//EN" "http://www.w3.org/Graphics/SVG/1.1/DTD/svg11.dtd">
<svg version="1.1" id="Layer_1" xmlns="http://www.w3.org/2000/svg" xmlns:xlink="http://www.w3.org/1999/xlink" x="0px" y="0px"
	 viewBox="0 0 412 330" enable-background="new 0 0 412 330" xml:space="preserve">
<path fill="#FFFFFF" d="M324,330H88.1C62.3,330,41,308.7,41,282.9V47.1C41,21.3,62.3,0,88.1,0h235.7C349.7,0,371,21.3,371,47.1
	v235.7C371,308.9,349.9,330,324,330z M206.1,117.9c-25.9,0-47.1,21.3-47.1,47.1s21.3,47.1,47.1,47.1s47.1-21.3,47.1-47.1
	S232,117.9,206.1,117.9z M300.4,47.1c-14.1,0-23.7,9.4-23.7,23.7s9.4,23.7,23.7,23.7c14.2,0,23.7-9.4,23.7-23.7
	S314.4,47.1,300.4,47.1z M324,165.1h-23.7c0,51.8-42.5,94.3-94.3,94.3s-94.3-42.5-94.3-94.3H88.1v94.3c0,14.1,9.4,23.7,23.7,23.7
	h188.6c14.1,0,23.7-9.4,23.7-23.7V165.1z"/>
</svg>
