<?xml version="1.0" encoding="utf-8"?>
<!-- Generator: Adobe Illustrator 15.0.0, SVG Export Plug-In . SVG Version: 6.00 Build 0)  -->
<!DOCTYPE svg PUBLIC "-//W3C//DTD SVG 1.1//EN" "http://www.w3.org/Graphics/SVG/1.1/DTD/svg11.dtd">
<svg version="1.1" id="ZHONG_2" xmlns="http://www.w3.org/2000/svg" xmlns:xlink="http://www.w3.org/1999/xlink" x="0px" y="0px"
	 width="40px" height="40px" viewBox="0 0 40 40" enable-background="new 0 0 40 40" xml:space="preserve">
<path fill="#FFFFFF" d="M20,2.1c9.9,0,17.9,8,17.9,17.9s-8,17.9-17.9,17.9S2.1,29.9,2.1,20S10.1,2.1,20,2.1 M20,0.6
	C9.3,0.6,0.6,9.3,0.6,20S9.3,39.4,20,39.4S39.4,30.7,39.4,20S30.7,0.6,20,0.6L20,0.6z"/>
<path fill="#FFFFFF" d="M21.4,14.1V9.7h-2.8v4.5h-8.3v0v2.8v6.2v2.7v0h8.3v4.5h2.8v-4.5h8.3v0v-2.7v-6.2v-2.8v0H21.4z M13.1,23.1
	v-6.2h5.5v6.2H13.1z M26.9,23.1h-5.5v-6.2h5.5V23.1z"/>
</svg>
