<?xml version="1.0" encoding="utf-8"?>
<!-- Generator: Adobe Illustrator 15.0.0, SVG Export Plug-In . SVG Version: 6.00 Build 0)  -->
<!DOCTYPE svg PUBLIC "-//W3C//DTD SVG 1.1//EN" "http://www.w3.org/Graphics/SVG/1.1/DTD/svg11.dtd">
<svg version="1.1" id="ENG_2" xmlns="http://www.w3.org/2000/svg" xmlns:xlink="http://www.w3.org/1999/xlink" x="0px" y="0px"
	 width="40px" height="40px" viewBox="0 0 40 40" enable-background="new 0 0 40 40" xml:space="preserve">
<path fill="#FFFFFF" d="M17.4,21.1h-6.1v3.7h6.1v2.1H8.6V13.1h8.9v2.1h-6.1v3.7h6.1V21.1z"/>
<path fill="#FFFFFF" d="M31.4,26.9h-2.8l-5.6-9.3l-0.1,0v9.3h-2.8V13.1H23l5.6,9.3l0.1,0v-9.3h2.8V26.9z"/>
<path fill="#FFFFFF" d="M20,2.1c9.9,0,17.9,8,17.9,17.9s-8,17.9-17.9,17.9S2.1,29.9,2.1,20S10.1,2.1,20,2.1 M20,0.6
	C9.3,0.6,0.6,9.3,0.6,20S9.3,39.4,20,39.4S39.4,30.7,39.4,20S30.7,0.6,20,0.6L20,0.6z"/>
</svg>
