<?xml version="1.0" encoding="utf-8"?>
<!-- Generator: Adobe Illustrator 15.0.0, SVG Export Plug-In . SVG Version: 6.00 Build 0)  -->
<!DOCTYPE svg PUBLIC "-//W3C//DTD SVG 1.1//EN" "http://www.w3.org/Graphics/SVG/1.1/DTD/svg11.dtd">
<svg version="1.1" id="STORYZER_icon" xmlns="http://www.w3.org/2000/svg" xmlns:xlink="http://www.w3.org/1999/xlink" x="0px"
	 y="0px" preserveAspectRatio="xMinYMin meet" viewBox="0 0 414 80" xml:space="preserve">
<path fill="#FFFFFF" d="M393.1,47.6c5.1-0.2,8.6-1.3,12-3.6c2.4-1.7,4.3-4,5.7-6.8c1.3-2.8,2-5.9,2-9.1c0-6.3-2.1-11.3-6.2-14.7
	c-4-3.4-8.8-4.8-15.9-4.8h-17v62.8h8.7V47.7h0L402,71.2l0.1,0.2h10.7L393.1,47.6z M382.4,16.2h6.6c5.6,0,9.7,1.1,12.2,3.3
	c2.5,2.2,3.8,5.1,3.8,8.6c0,2.5-0.6,4.7-1.9,6.5c-1.4,2.1-3.2,3.5-5.6,4.3c-2,0.7-4.5,1.1-7.6,1.1h-7.6V16.2z"/>
<polygon fill="#FFFFFF" points="366.1,16.2 366.1,8.6 328.3,8.6 328.3,71.3 366.1,71.3 366.1,63.7 337,63.7 337,43.7 366.1,43.7 
	366.1,36.1 337,36.1 337,16.2 "/>
<polygon fill="#FFFFFF" points="320.7,8.6 279.2,8.6 279.2,16.2 306.4,16.2 279.2,71.3 320.7,71.3 320.7,63.7 293.6,63.7 "/>
<polygon fill="#FFFFFF" points="262.5,8.6 247.1,34.6 231.6,8.8 231.4,8.6 221,8.6 242.8,43.8 242.8,71.3 251.5,71.3 251.5,43.8 
	272.9,8.6 "/>
<path fill="#FFFFFF" d="M200.2,47.6c5.1-0.2,8.6-1.3,12-3.6c2.4-1.7,4.3-4,5.7-6.8c1.3-2.8,2-5.9,2-9.1c0-6.3-2.1-11.3-6.2-14.7
	c-4-3.4-8.8-4.8-15.9-4.8h-17v62.8h8.7V47.7h0l19.6,23.5l0.1,0.2H220L200.2,47.6z M189.5,16.2h6.6c5.6,0,9.7,1.1,12.2,3.3
	c2.5,2.2,3.8,5.1,3.8,8.6c0,2.5-0.6,4.7-1.9,6.5c-1.4,2.1-3.2,3.5-5.6,4.3c-2,0.7-4.5,1.1-7.6,1.1h-7.6V16.2z"/>
<path fill="#FFFFFF" d="M170,31.1c-3.2-9.4-4.9-12.2-6.6-14.6c-5.9-8.8-18.9-15.1-37.2-14.8c-11.2,0.2-21.1,9.6-24,13.9
	c-2.3,3.5-6.2,9.2-7.3,13.8c-1.1,4.3-2.8,15.9,0.7,22.7c2,4,3.6,6.1,5,7.8c-1.1,8.4-7.1,9.9-6.2,11.1c1.4,1.7,12.6,1.1,17-0.5
	c0.5,0.4,1,0.8,1.4,1.1c4.7,3.4,12.7,6.8,19,6.7c10.4-0.2,19-4.3,22.9-6.8c2.8-1.7,5.7-4,9.6-8.8c3.7-4.5,6.6-10.5,7.3-16.1
	C172.2,42.4,171.5,35.5,170,31.1z"/>
<polygon fill="#FFFFFF" points="44.7,8.6 44.7,16.2 63,16.2 63,71.3 71.7,71.3 71.7,16.2 90,16.2 90,8.6 "/>
<path fill="#FFFFFF" d="M30.6,39.1c-1.7-1-9.3-3.8-9.4-3.8c-3.9-1.4-6.6-2.7-7.9-3.6c-2.2-1.6-3.3-3.8-3.3-6.8
	c0-2.6,0.9-4.9,2.6-6.7c1.8-1.9,4.3-2.9,7.4-2.9c3.1,0,5.6,1,7.4,2.9c1.7,1.8,2.6,4.1,2.6,6.7c0,0.4,0,0.7-0.1,1.1L30,26.5h8.9
	l0-0.7c0-0.1,0-0.2,0-0.4c0-5.6-2-10.2-5.9-13.6c-3.4-2.9-7.7-4.4-13-4.4c-5.3,0-9.7,1.5-13,4.4c-3.9,3.4-5.9,8-5.9,13.6
	c0,6.4,2.8,11.3,8.3,14.6c1.7,1,4.8,2.3,9.3,3.8c1.8,0.7,6.9,2.8,8,3.6c2.2,1.6,3.3,3.8,3.3,6.8c0,2.6-0.9,4.9-2.6,6.7
	c-1.8,1.9-4.3,2.9-7.4,2.9c-3.1,0-5.6-1-7.4-2.9c-1.7-1.8-2.6-4.1-2.6-6.7c0-0.4,0-0.7,0.1-1.1l0.1-0.5H1.2l0,0.7c0,0.1,0,0.2,0,0.4
	c0,5.6,2,10.2,5.9,13.6c3.4,2.9,7.7,4.4,13,4.4h0c5.3,0,9.7-1.5,13-4.4c3.9-3.4,5.9-8,5.9-13.6C38.9,47.3,36.1,42.4,30.6,39.1z"/>
</svg>
