<?xml version="1.0" encoding="utf-8"?>
<!-- Generator: Adobe Illustrator 15.0.0, SVG Export Plug-In . SVG Version: 6.00 Build 0)  -->
<!DOCTYPE svg PUBLIC "-//W3C//DTD SVG 1.1//EN" "http://www.w3.org/Graphics/SVG/1.1/DTD/svg11.dtd">
<svg version="1.1" id="ICONS" xmlns="http://www.w3.org/2000/svg" xmlns:xlink="http://www.w3.org/1999/xlink" x="0px" y="0px"
	 width="414px" height="80px" viewBox="0 0 414 80" enable-background="new 0 0 414 80" xml:space="preserve">
<rect x="-25.944" y="-23.25" display="none" opacity="0.5" width="464.882" height="125.577"/>
<g id="ICONS_TEMPLATE" display="none">
	<circle fill="#FFFFFF" cx="207" cy="40" r="32"/>
	<g>
		<path display="inline" d="M192.778,32.135v5.294h8.539v5.086h-8.539v5.351h8.539v5.086h-14.839V27.049h14.839v5.086H192.778z"/>
		<path display="inline" d="M211.772,38.207v14.744h-6.3V27.049h6.3l9.45,14.555V27.049h6.3v25.902h-6.3L211.772,38.207z"/>
	</g>
	<g id="ZHONG_1_">
		<rect x="190.899" y="30.551" display="inline" width="32.202" height="6.3"/>
		<rect x="203.85" y="22.64" display="inline" width="6.3" height="34.721"/>
		<rect x="216.802" y="30.551" display="inline" width="6.3" height="18.899"/>
		<rect x="190.899" y="43.15" display="inline" width="32.202" height="6.3"/>
		<rect x="190.898" y="30.551" display="inline" width="6.3" height="18.899"/>
	</g>
</g>
<path id="EN" display="none" fill="#FFFFFF" d="M279.828,1.2c-21.428,0-38.8,17.371-38.8,38.8s17.372,38.8,38.8,38.8
	s38.8-17.371,38.8-38.8S301.256,1.2,279.828,1.2z M272.937,30.463h-10.354v6.419h10.354v6.167h-10.354v6.488h10.354v6.166h-17.993
	V24.297h17.993V30.463z M304.711,55.703h-7.638l-11.458-17.877v17.877h-7.638V24.297h7.638l11.458,17.647V24.297h7.638V55.703z"/>
<g id="ZHONG" display="none">
	<rect x="283.646" y="36.181" display="inline" fill="#FFFFFF" width="8.066" height="7.64"/>
	<rect x="267.943" y="36.181" display="inline" fill="#FFFFFF" width="8.064" height="7.64"/>
	<path display="inline" fill="#FFFFFF" d="M279.828,1.2c-21.428,0-38.8,17.371-38.8,38.8s17.372,38.8,38.8,38.8
		s38.8-17.371,38.8-38.8S301.256,1.2,279.828,1.2z M299.351,36.181v7.64v7.638h-7.638h-8.066v9.592h-7.639v-9.592h-8.064h-7.638
		h-0.001V28.543h0.001h7.638h8.064V18.95h7.639v9.593h8.066h7.638V36.181z"/>
</g>
<g id="HAMBURGER" display="none">
	<rect x="324.872" y="8.569" display="inline" fill="#FFFFFF" width="62.756" height="12.551"/>
	<rect x="324.872" y="33.672" display="inline" fill="#FFFFFF" width="62.756" height="12.551"/>
	<rect x="324.872" y="58.774" display="inline" fill="#FFFFFF" width="62.756" height="12.551"/>
</g>
<g id="STORYZER_logo">
	<path fill="#FFFFFF" d="M393.121,47.648c5.051-0.183,8.607-1.266,11.955-3.626c2.41-1.7,4.311-3.978,5.654-6.77
		c1.337-2.785,2.015-5.863,2.015-9.146c0-6.338-2.082-11.29-6.191-14.718c-4.027-3.377-8.777-4.819-15.88-4.819h-17.001v62.756
		h8.734V47.688h0.009l19.58,23.478l0.144,0.16h10.724L393.121,47.648z M382.407,16.218h6.591c5.563,0,9.681,1.104,12.235,3.281
		c2.505,2.16,3.774,5.07,3.774,8.649c0,2.46-0.627,4.659-1.869,6.536c-1.353,2.073-3.222,3.533-5.557,4.343
		c-1.995,0.701-4.548,1.057-7.587,1.057h-7.586V16.218z"/>
	<polygon fill="#FFFFFF" points="366.067,16.17 366.067,8.569 328.309,8.569 328.309,71.325 366.067,71.325 366.067,63.72 
		337.044,63.72 337.044,43.749 366.067,43.749 366.067,36.146 337.044,36.146 337.044,16.17 	"/>
	<polygon fill="#FFFFFF" points="320.704,8.569 279.208,8.569 279.208,16.17 306.355,16.17 279.208,71.325 320.704,71.325 
		320.704,63.724 293.557,63.724 	"/>
	<polygon fill="#FFFFFF" points="262.542,8.569 247.096,34.608 231.565,8.799 231.427,8.569 221.029,8.569 242.776,43.773 
		242.776,71.325 251.511,71.325 251.511,43.77 272.89,8.569 	"/>
	<path fill="#FFFFFF" d="M200.212,47.648c5.051-0.183,8.607-1.266,11.955-3.626c2.411-1.7,4.312-3.978,5.654-6.77
		c1.337-2.785,2.016-5.863,2.016-9.146c0-6.338-2.083-11.29-6.191-14.718c-4.027-3.377-8.777-4.819-15.88-4.819h-17v62.756h8.734
		V47.688h0.009l19.58,23.478l0.144,0.16h10.724L200.212,47.648z M189.499,16.218h6.591c5.563,0,9.681,1.104,12.235,3.281
		c2.503,2.16,3.774,5.07,3.774,8.649c0,2.46-0.628,4.659-1.868,6.536c-1.353,2.073-3.222,3.533-5.558,4.343
		c-1.995,0.701-4.549,1.057-7.587,1.057h-7.587V16.218z"/>
	<path fill="#FFFFFF" d="M170.009,31.124c-3.2-9.406-4.927-12.237-6.553-14.633c-5.934-8.75-18.851-15.097-37.225-14.779
		c-11.236,0.194-21.115,9.636-24.005,13.909c-2.349,3.473-6.174,9.159-7.325,13.819c-1.052,4.252-2.791,15.899,0.713,22.73
		c2.034,3.965,3.608,6.097,4.97,7.762c-1.139,8.375-7.141,9.904-6.155,11.092c1.371,1.651,12.575,1.097,16.985-0.487
		c0.507,0.42,0.975,0.788,1.382,1.08c4.691,3.365,12.699,6.789,19.019,6.681c10.379-0.18,18.965-4.347,22.894-6.759
		c2.816-1.731,5.66-3.964,9.644-8.831c3.676-4.486,6.618-10.532,7.325-16.054C172.215,42.444,171.507,35.526,170.009,31.124z"/>
	<polygon fill="#FFFFFF" points="44.748,8.569 44.748,16.17 62.975,16.17 62.975,71.325 71.709,71.325 71.709,16.17 89.981,16.17 
		89.981,8.569 	"/>
	<path fill="#FFFFFF" d="M30.557,39.099c-1.688-1.001-9.342-3.803-9.355-3.805c-3.934-1.446-6.594-2.654-7.909-3.591
		c-2.242-1.579-3.332-3.808-3.332-6.813c0-2.638,0.885-4.888,2.634-6.696c1.801-1.912,4.289-2.882,7.443-2.882
		c3.11,0,5.599,0.97,7.404,2.888c1.744,1.803,2.629,4.053,2.629,6.69c0,0.371-0.018,0.734-0.053,1.086l-0.05,0.519h8.882
		l0.027-0.698c0.009-0.118,0.018-0.237,0.018-0.363c0-5.612-1.974-10.18-5.867-13.58c-3.356-2.925-7.734-4.411-13.012-4.417
		c-5.277,0.006-9.654,1.492-13.011,4.417c-3.894,3.4-5.867,7.968-5.867,13.58c0,6.428,2.804,11.35,8.337,14.627
		c1.653,0.978,4.79,2.257,9.303,3.788c1.845,0.741,6.874,2.831,7.962,3.605c2.242,1.58,3.332,3.809,3.332,6.813
		c0,2.638-0.885,4.888-2.634,6.693c-1.801,1.914-4.29,2.885-7.443,2.885c-3.11,0-5.599-0.971-7.404-2.889
		c-1.744-1.802-2.629-4.052-2.629-6.689c0-0.371,0.018-0.735,0.053-1.087l0.05-0.521H1.181l-0.027,0.698
		c-0.009,0.119-0.018,0.24-0.018,0.365c0,5.611,1.973,10.18,5.868,13.578c3.356,2.928,7.734,4.413,13.011,4.417h0.001
		c5.277-0.004,9.654-1.489,13.011-4.417c3.893-3.398,5.867-7.967,5.867-13.578C38.894,47.298,36.09,42.375,30.557,39.099z"/>
</g>
</svg>
